<?xml version="1.0" encoding="UTF-8"?>
<svg version="1.1" xmlns="http://www.w3.org/2000/svg" width="736" height="260">
<path d="M0 0 C0.93121674 -0.01283524 1.86243347 -0.02567047 2.8218689 -0.03889465 C4.34211166 -0.04997505 4.34211166 -0.04997505 5.89306641 -0.0612793 C6.92775055 -0.06935104 7.96243469 -0.07742279 9.0284729 -0.08573914 C11.22257807 -0.09959762 13.41670496 -0.11031184 15.61083984 -0.11816406 C18.97355782 -0.13539011 22.33529639 -0.17926258 25.69775391 -0.22338867 C27.82535081 -0.23351379 29.95295611 -0.24203046 32.08056641 -0.2487793 C33.09001312 -0.26628738 34.09945984 -0.28379547 35.13949585 -0.30183411 C36.07701691 -0.29890854 37.01453796 -0.29598297 37.98046875 -0.29296875 C39.21837662 -0.30176811 39.21837662 -0.30176811 40.48129272 -0.31074524 C42.61962891 0.17700195 42.61962891 0.17700195 44.31135559 1.97053528 C45.48927928 3.95716095 46.4010741 5.7860085 47.19116211 7.95043945 C47.59482246 9.04654541 47.59482246 9.04654541 48.00663757 10.16479492 C48.28755753 10.95257324 48.56847748 11.74035156 48.85791016 12.55200195 C49.15957596 13.38489746 49.46124176 14.21779297 49.77204895 15.07592773 C53.34262259 25.03480956 56.57680468 35.10387234 59.80712891 45.17700195 C60.71598327 48.00384741 61.62603889 50.83029223 62.53840637 53.65600586 C63.09827948 55.39065381 63.65615539 57.12594841 64.21147156 58.86206055 C66.19708532 65.02372882 68.37438597 71.10542998 70.61962891 77.17700195 C70.62993637 76.24183746 70.64024384 75.30667297 70.65086365 74.34317017 C70.74848836 65.543473 70.85121194 56.74384828 70.95896816 47.94426918 C71.01420581 43.41998381 71.06762716 38.89569199 71.11694336 34.37133789 C71.1645745 30.00763587 71.21691685 25.64401378 71.27256966 21.28040695 C71.29299888 19.61301023 71.31171102 17.94559158 71.32870293 16.27815628 C71.3527344 13.9482961 71.38279056 11.6185876 71.41430664 9.28881836 C71.4200621 8.59470352 71.42581757 7.90058868 71.43174744 7.18544006 C71.50557674 2.40510628 71.50557674 2.40510628 72.61962891 0.17700195 C77.5858524 0.15235098 82.55204057 0.13416547 87.51831055 0.12207031 C89.20907206 0.11703006 90.8998292 0.1101979 92.59057617 0.1015625 C95.01563597 0.08948339 97.44063835 0.08377072 99.86572266 0.0793457 C101.00635414 0.07160378 101.00635414 0.07160378 102.17002869 0.06370544 C103.98695461 0.06350958 105.80376018 0.11502919 107.61962891 0.17700195 C109.36657948 1.92395253 108.74576185 4.34497744 108.74661255 6.71936035 C108.75084229 8.52409065 108.75084229 8.52409065 108.75515747 10.36528015 C108.75321288 11.71072403 108.75116469 13.05616775 108.74902344 14.40161133 C108.75037745 15.80898585 108.75215738 17.21636003 108.7543335 18.62373352 C108.75890786 22.45627263 108.75711826 26.28878494 108.75395441 30.12132454 C108.75143082 34.12340495 108.75376834 38.12548299 108.75534058 42.12756348 C108.75716228 48.84961359 108.75475595 55.57165273 108.75 62.29370117 C108.74455738 70.0763892 108.74632003 77.85905103 108.75182641 85.64173841 C108.75635752 92.31178497 108.75700809 98.98182361 108.75438774 105.6518712 C108.75282495 109.64085857 108.75263122 113.62983361 108.75592422 117.61882019 C108.75880292 121.36815307 108.75682728 125.11745203 108.75102997 128.86678123 C108.74970236 130.24671052 108.7500965 131.62664264 108.75229263 133.00657082 C108.75500408 134.88259406 108.75100937 136.75862351 108.74661255 138.63464355 C108.74604701 140.2131094 108.74604701 140.2131094 108.74547005 141.82346344 C108.61962891 144.17700195 108.61962891 144.17700195 107.61962891 145.17700195 C106.1627502 145.29078558 104.70046872 145.33654027 103.23925781 145.35400391 C102.30804108 145.36683914 101.37682434 145.37967438 100.41738892 145.39289856 C98.89714615 145.40397896 98.89714615 145.40397896 97.34619141 145.4152832 C96.31150726 145.42335495 95.27682312 145.4314267 94.21078491 145.43974304 C92.01667974 145.45360153 89.82255285 145.46431575 87.62841797 145.47216797 C84.26569999 145.48939401 80.90396142 145.53326649 77.54150391 145.57739258 C75.413907 145.5875177 73.2863017 145.59603436 71.15869141 145.6027832 C70.14924469 145.62029129 69.13979797 145.63779938 68.09976196 145.65583801 C67.16224091 145.65291245 66.22471985 145.64998688 65.25878906 145.64697266 C64.43351715 145.6528389 63.60824524 145.65870514 62.75796509 145.66474915 C60.61962891 145.17700195 60.61962891 145.17700195 58.90692139 143.34387207 C57.17893723 140.4351957 56.20836119 137.49946385 55.15869141 134.2824707 C54.93158478 133.59407608 54.70447815 132.90568146 54.4704895 132.19642639 C53.72158344 129.92133457 52.98319145 127.64297035 52.24462891 125.36450195 C51.72361844 123.77602338 51.20179475 122.18781132 50.67919922 120.59985352 C49.57139314 117.23184672 48.46708951 113.86271831 47.36474609 110.49291992 C44.74775799 102.50598175 42.08034195 94.53582802 39.41705322 86.5642395 C37.14847713 79.76941721 34.88452136 72.9730528 32.61962891 66.17700195 C32.60932144 67.15197128 32.59901398 68.12694061 32.58839417 69.13145447 C32.49082945 78.2993651 32.38811189 87.46720528 32.28028965 96.63500118 C32.22501842 101.34876554 32.17159185 106.06253606 32.12231445 110.77636719 C32.07473266 115.32161099 32.02239237 119.86677691 31.96668816 124.41192818 C31.94623647 126.14992915 31.92752815 127.88795149 31.91055489 129.62598991 C31.88657287 132.05184572 31.85651031 134.47755296 31.82495117 136.90332031 C31.81919571 137.62908264 31.81344025 138.35484497 31.80751038 139.1026001 C31.73368107 144.06294979 31.73368107 144.06294979 30.61962891 145.17700195 C28.03773445 145.27791671 25.4831639 145.31671694 22.90087891 145.30981445 C21.74126648 145.31124954 21.74126648 145.31124954 20.55822754 145.31271362 C18.92065347 145.31339536 17.28307672 145.31154152 15.64550781 145.30737305 C13.1303097 145.30202467 10.61529017 145.30731822 8.10009766 145.3137207 C6.51285768 145.31305992 4.92561781 145.31177876 3.33837891 145.30981445 C2.58109497 145.31183868 1.82381104 145.31386292 1.0435791 145.31594849 C-4.26541978 145.29195327 -4.26541978 145.29195327 -5.38037109 144.17700195 C-5.47903737 142.33170023 -5.50669265 140.48258107 -5.50735474 138.63464355 C-5.51017456 137.43149002 -5.51299438 136.22833649 -5.51589966 134.98872375 C-5.51395507 133.64327988 -5.51190688 132.29783615 -5.50976562 130.95239258 C-5.51111964 129.54501805 -5.51289957 128.13764388 -5.51507568 126.73027039 C-5.51965005 122.89773128 -5.51786045 119.06521897 -5.5146966 115.23267937 C-5.51217301 111.23059896 -5.51451053 107.22852092 -5.51608276 103.22644043 C-5.51790446 96.50439032 -5.51549814 89.78235118 -5.51074219 83.06030273 C-5.50529957 75.27761471 -5.50706222 67.49495288 -5.51256859 59.71226549 C-5.51709971 53.04221894 -5.51775028 46.37218029 -5.51512992 39.7021327 C-5.51356714 35.71314534 -5.51337341 31.7241703 -5.51666641 27.73518372 C-5.51954511 23.98585083 -5.51756946 20.23655187 -5.51177216 16.48722267 C-5.51044455 15.10729339 -5.51083868 13.72736127 -5.51303482 12.34743309 C-5.51574627 10.47140985 -5.51175155 8.5953804 -5.50735474 6.71936035 C-5.50697771 5.66704979 -5.50660069 4.61473923 -5.50621223 3.53054047 C-5.28924077 -0.52735905 -3.6241712 0.04331423 0 0 Z " fill="#004B85" transform="translate(446.38037109375,63.822998046875)"/>
<path d="M0 0 C5.17772746 -0.12385084 10.35458788 -0.21445571 15.53344727 -0.2746582 C17.29401676 -0.29976061 19.05448247 -0.33385028 20.81469727 -0.37719727 C23.34938179 -0.43804115 25.88268575 -0.46625113 28.41796875 -0.48828125 C29.59325386 -0.52699089 29.59325386 -0.52699089 30.7922821 -0.56648254 C34.98236924 -0.56861981 36.52364179 -0.3802491 39.91625977 2.32788086 C42.26773829 5.34333868 44.06010567 8.46390044 45.75 11.875 C48.63254214 17.47612831 51.64739655 22.96463466 54.875 28.375 C55.25624023 29.0232373 55.63748047 29.67147461 56.03027344 30.33935547 C57.94290922 33.74124246 57.94290922 33.74124246 61 36 C61.26119629 35.29875 61.52239258 34.5975 61.79150391 33.875 C63.86398809 28.94458105 66.66228254 24.41116436 69.33984375 19.7890625 C70.37016438 18.00835741 71.39240583 16.22318673 72.4140625 14.4375 C73.06890625 13.303125 73.72375 12.16875 74.3984375 11 C74.99317871 9.96875 75.58791992 8.9375 76.20068359 7.875 C76.79445801 6.92625 77.38823242 5.9775 78 5 C78.55929199 4.0613208 79.11858398 3.1226416 79.69482422 2.15551758 C83.02005559 -0.95383084 86.17198651 -0.62938623 90.484375 -0.48828125 C91.70776581 -0.47766914 91.70776581 -0.47766914 92.95587158 -0.46684265 C95.55485681 -0.43890544 98.15166872 -0.37617281 100.75 -0.3125 C102.51429175 -0.28741605 104.27861735 -0.26460304 106.04296875 -0.24414062 C110.36281356 -0.18908154 114.68103863 -0.10281735 119 0 C120 3 120 3 119.05053711 5.25463867 C118.5478833 6.1335376 118.04522949 7.01243652 117.52734375 7.91796875 C116.96442627 8.9128833 116.40150879 9.90779785 115.8215332 10.93286133 C115.19980225 12.00689209 114.57807129 13.08092285 113.9375 14.1875 C113.30352295 15.30084717 112.6695459 16.41419434 112.01635742 17.5612793 C108.24017535 24.17321139 104.40648541 30.75171043 100.56005859 37.32299805 C99.39752624 39.31171119 98.23897558 41.3027574 97.08447266 43.29614258 C94.29373724 48.11197463 91.45943169 52.88334808 88.5 57.59765625 C87.43687122 59.3563909 86.37434089 61.11548748 85.3125 62.875 C84.79985596 63.65270752 84.28721191 64.43041504 83.7590332 65.23168945 C82.3915169 67.55028192 81.48812495 69.35021956 81 72 C81.98265033 75.76484846 83.91081163 78.74612976 86 82 C87.02374326 83.78013641 88.04317565 85.56275794 89.05859375 87.34765625 C90.18247802 89.25403163 91.30888673 91.15892047 92.4375 93.0625 C97.55345645 101.76058248 102.57669553 110.50387725 107.5 119.3125 C108.06259521 120.31869385 108.62519043 121.3248877 109.20483398 122.36157227 C110.2788351 124.28767079 111.34873359 126.216064 112.4140625 128.14697266 C113.51656171 130.13031714 114.63779243 132.10331768 115.7734375 134.06787109 C116.33289063 135.04965332 116.89234375 136.03143555 117.46875 137.04296875 C117.97857422 137.92364014 118.48839844 138.80431152 119.01367188 139.71166992 C120 142 120 142 119 145 C113.80396196 145.12369707 108.60878256 145.21438309 103.41162109 145.2746582 C101.64421662 145.29978641 99.8769159 145.33389516 98.10986328 145.37719727 C95.56777351 145.43792735 93.02705835 145.46622515 90.484375 145.48828125 C89.30134796 145.52699089 89.30134796 145.52699089 88.09442139 145.56648254 C84.23031074 145.56845333 82.43838372 145.41755061 79.59057617 142.70507812 C77.08901668 138.45069912 77.08901668 138.45069912 76.06640625 136.23046875 C73.92630784 131.77567671 71.46671734 127.55566971 68.9375 123.3125 C68.50373047 122.57966797 68.06996094 121.84683594 67.62304688 121.09179688 C65.83798196 118.07865077 64.04733402 115.07575488 62.19140625 112.10546875 C61 110 61 110 61 108 C60.34 108 59.68 108 59 108 C58.76410156 108.66257812 58.52820313 109.32515625 58.28515625 110.0078125 C56.64225503 113.83292599 54.57249206 117.30684122 52.4375 120.875 C52.04498047 121.53757812 51.65246094 122.20015625 51.24804688 122.8828125 C50.37622935 124.35170943 49.48223775 125.80757614 48.5715332 127.25268555 C47.30795405 129.46164254 46.32314947 131.54899966 45.34057617 133.88208008 C40.78097836 143.93241408 40.78097836 143.93241408 35.97476196 145.77746582 C30.14569729 146.87345253 24.3134927 146.36816416 18.4375 145.9375 C16.64806656 145.86216396 14.85832803 145.79373897 13.06835938 145.73242188 C8.70464548 145.56796127 4.35570124 145.30991817 0 145 C-1 142 -1 142 0.13305664 139.4699707 C0.71949951 138.46538818 1.30594238 137.46080566 1.91015625 136.42578125 C2.56363037 135.29495117 3.21710449 134.16412109 3.89038086 132.99902344 C4.61423285 131.77007171 5.33827721 130.54123326 6.0625 129.3125 C6.79721802 128.0490329 7.53101409 126.78502925 8.26391602 125.52050781 C10.13794301 122.29259443 12.02362302 119.0716694 13.91320801 115.85284424 C15.56975583 113.02863767 17.21830156 110.1997786 18.8671875 107.37109375 C19.4657959 106.345 20.0644043 105.31890625 20.68115234 104.26171875 C21.84350477 102.26856063 23.00529714 100.27507579 24.16650391 98.28125 C26.727492 93.88544628 29.29767088 89.49665492 31.90625 85.12890625 C32.75051256 83.69040487 33.59429993 82.25162443 34.4375 80.8125 C34.82156006 80.18311523 35.20562012 79.55373047 35.60131836 78.90527344 C37.1020982 76.3140299 38.06940793 74.61158023 37.72558594 71.58203125 C36.99517317 68.9828235 36.06846813 66.90534774 34.76953125 64.54296875 C34.30353516 63.69009277 33.83753906 62.8372168 33.35742188 61.95849609 C32.84759766 61.04406738 32.33777344 60.12963867 31.8125 59.1875 C31.28076172 58.22408691 30.74902344 57.26067383 30.20117188 56.26806641 C22.8779918 43.0740094 15.32067564 29.99561019 7.41015625 17.14453125 C6.84619141 16.22365723 6.28222656 15.3027832 5.70117188 14.35400391 C4.63238298 12.61483342 3.55464705 10.88112028 2.46679688 9.15380859 C1.99435547 8.38504395 1.52191406 7.6162793 1.03515625 6.82421875 C0.6162915 6.15479248 0.19742676 5.48536621 -0.23413086 4.7956543 C-1 3 -1 3 0 0 Z " fill="#004B84" transform="translate(151,64)"/>
<path d="M0 0 C9.08443499 -0.11629942 18.16861028 -0.20491922 27.25362968 -0.25906086 C31.47306657 -0.28505782 35.69199086 -0.32027193 39.91113281 -0.37719727 C43.98957417 -0.43187439 48.06752524 -0.46149484 52.14630508 -0.47438622 C53.69554478 -0.48356261 55.24476029 -0.50148103 56.79378891 -0.52865028 C67.31026122 -0.70562152 74.93111756 0.4895919 83.5859375 6.921875 C92.33025079 15.85711216 94.12930495 24.92566512 94.23828125 37.09765625 C94.246353 37.96837265 94.25442474 38.83908905 94.26274109 39.7361908 C94.2765277 41.57597903 94.28727393 43.41579227 94.29516602 45.25561523 C94.30664509 47.11441688 94.32703181 48.97318663 94.35668945 50.83178711 C94.76520919 76.48636983 94.76520919 76.48636983 86.25 87.0625 C78.98138954 94.425508 70.00159888 97.15017342 59.75390625 97.4140625 C59.09792953 97.43342865 58.44195282 97.4527948 57.76609802 97.4727478 C55.69835872 97.53188909 53.63056171 97.57866229 51.5625 97.625 C50.14906606 97.66324033 48.73565391 97.70229545 47.32226562 97.7421875 C43.88171148 97.83753452 40.44099161 97.92180287 37 98 C36.99191315 98.5593222 36.98382629 99.11864441 36.97549438 99.69491577 C36.88961651 105.50225045 36.7901211 111.30923715 36.68261719 117.11621094 C36.64427009 119.28509693 36.60942745 121.45404777 36.578125 123.62304688 C36.53259862 126.73591332 36.47458427 129.84833106 36.4140625 132.9609375 C36.39673569 134.42193375 36.39673569 134.42193375 36.37905884 135.91244507 C36.35918915 136.81322784 36.33931946 137.71401062 36.31884766 138.64208984 C36.30552399 139.43706879 36.29220032 140.23204773 36.2784729 141.05111694 C36 143 36 143 34 145 C31.51433457 145.19948557 29.1424925 145.27989743 26.65625 145.265625 C25.93135376 145.26753845 25.20645752 145.2694519 24.45959473 145.27142334 C22.92634738 145.27278487 21.3930885 145.26909064 19.85986328 145.26074219 C17.50917741 145.25004178 15.15925577 145.26063808 12.80859375 145.2734375 C11.32031081 145.2721159 9.83202834 145.26955349 8.34375 145.265625 C7.63851196 145.26967346 6.93327393 145.27372192 6.20666504 145.27789307 C1.22992486 145.22992486 1.22992486 145.22992486 -1 143 C-1.24888897 140.55744171 -1.24888897 140.55744171 -1.24723816 137.42004395 C-1.25143265 136.23378922 -1.25562714 135.04753448 -1.25994873 133.82533264 C-1.25432922 132.51721115 -1.24870972 131.20908966 -1.24291992 129.86132812 C-1.24399241 128.47513235 -1.24593059 127.08893701 -1.24867249 125.70274353 C-1.25352934 121.9321427 -1.24585471 118.1616598 -1.23571944 114.39107323 C-1.22695233 110.45086165 -1.22869613 106.51065391 -1.2290802 102.57043457 C-1.22814293 95.95269796 -1.2194506 89.33500713 -1.20581055 82.71728516 C-1.19008436 75.05899353 -1.18481241 67.40075207 -1.1855461 59.74244547 C-1.18615587 52.38480334 -1.18105511 45.02717761 -1.17275429 37.66954041 C-1.16921778 34.53401054 -1.16739051 31.39848647 -1.16686058 28.26295471 C-1.16585807 24.57269509 -1.15976903 20.8824778 -1.14969444 17.19223213 C-1.14536661 15.18638162 -1.14594205 13.18052242 -1.14663696 11.17466736 C-1.14023949 9.39528526 -1.14023949 9.39528526 -1.13371277 7.57995605 C-1.13203692 6.54461479 -1.13036108 5.50927353 -1.12863445 4.44255829 C-1 2 -1 2 0 0 Z M36 30 C35.89900512 32.72724279 35.86029471 35.42862523 35.8671875 38.15625 C35.86623077 38.97371704 35.86527405 39.79118408 35.86428833 40.63342285 C35.86360655 42.36515378 35.86546071 44.09688724 35.86962891 45.82861328 C35.87497721 48.48866482 35.86968388 51.1485475 35.86328125 53.80859375 C35.86394203 55.48697954 35.8652232 57.16536523 35.8671875 58.84375 C35.86516327 59.64478149 35.86313904 60.44581299 35.86105347 61.27111816 C35.52786332 64.93582301 35.52786332 64.93582301 37 68 C39.97277321 68.18025762 42.90015256 68.27812195 45.875 68.3125 C46.70386719 68.34150391 47.53273438 68.37050781 48.38671875 68.40039062 C49.58361328 68.41295898 49.58361328 68.41295898 50.8046875 68.42578125 C51.90272705 68.44765503 51.90272705 68.44765503 53.02294922 68.4699707 C55.13615542 68.14061652 55.13615542 68.14061652 56.72363281 66.38330078 C59.15859478 61.83661014 58.68500502 56.64343784 58.81835938 51.58276367 C58.87475453 49.57125558 58.96317027 47.56291518 59.0546875 45.55273438 C59.0959375 44.27849609 59.1371875 43.00425781 59.1796875 41.69140625 C59.21819824 40.52810791 59.25670898 39.36480957 59.29638672 38.16625977 C58.96403614 34.61580292 58.18539043 32.79555551 56 30 C52.25976998 28.75325666 48.7683914 28.85447245 44.875 28.875 C44.13378906 28.87113281 43.39257812 28.86726563 42.62890625 28.86328125 C39.01770031 28.53253342 39.01770031 28.53253342 36 30 Z " fill="#004B85" transform="translate(285,64)"/>
<path d="M0 0 C2.74600659 -0.29159846 5.26627201 -0.38865561 8.01391602 -0.35644531 C8.84165527 -0.35848969 9.66939453 -0.36053406 10.5222168 -0.36264038 C13.26633581 -0.36565581 16.00985837 -0.34715009 18.75390625 -0.328125 C20.65437165 -0.32506886 22.55483929 -0.32319164 24.45530701 -0.32244873 C28.4409134 -0.31784103 32.42631827 -0.30339625 36.41186523 -0.28125 C41.53248002 -0.25294806 46.65293599 -0.24203718 51.77362156 -0.2375679 C55.69827376 -0.23342034 59.62289353 -0.22360876 63.54752922 -0.21169281 C65.43626583 -0.20597745 67.32500559 -0.20122296 69.21374702 -0.19742584 C71.8477139 -0.19058597 74.48155232 -0.17696502 77.11547852 -0.16113281 C78.29759163 -0.15945602 78.29759163 -0.15945602 79.50358582 -0.15774536 C84.88531332 -0.11468668 84.88531332 -0.11468668 86 1 C86.25301239 5.13962283 86.18522549 9.29105996 86.1875 13.4375 C86.19974609 14.60861328 86.21199219 15.77972656 86.22460938 16.98632812 C86.22654297 18.10330078 86.22847656 19.22027344 86.23046875 20.37109375 C86.23457764 21.40161865 86.23868652 22.43214355 86.24291992 23.49389648 C86 26 86 26 84 28 C81.82333374 28.2784729 81.82333374 28.2784729 79.09130859 28.31884766 C78.07040131 28.33871735 77.04949402 28.35858704 75.99765015 28.37905884 C74.89240997 28.39061005 73.7871698 28.40216125 72.6484375 28.4140625 C71.5192691 28.43342865 70.39010071 28.4527948 69.22671509 28.4727478 C65.60955428 28.53267069 61.99236187 28.57898002 58.375 28.625 C55.92706922 28.66316805 53.47915204 28.70221908 51.03125 28.7421875 C45.02090288 28.84004933 39.01070586 28.91951839 33 29 C33 37.58 33 46.16 33 55 C37.74697266 55.09087891 37.74697266 55.09087891 42.58984375 55.18359375 C45.64122028 55.2453305 48.69255776 55.30873997 51.74389648 55.37231445 C53.87114007 55.41573423 55.9984201 55.45740393 58.12573242 55.49731445 C61.17638151 55.55484707 64.22684589 55.61858967 67.27734375 55.68359375 C68.23462875 55.70030624 69.19191376 55.71701874 70.1782074 55.73423767 C71.05904495 55.75418289 71.93988251 55.77412811 72.84741211 55.79467773 C73.62684677 55.81022202 74.40628143 55.8257663 75.20933533 55.84178162 C77 56 77 56 78 57 C78.08748207 58.92667507 78.10697334 60.85651861 78.09765625 62.78515625 C78.09282227 64.53989258 78.09282227 64.53989258 78.08789062 66.33007812 C78.07532227 68.17762695 78.07532227 68.17762695 78.0625 70.0625 C78.05798828 71.29806641 78.05347656 72.53363281 78.04882812 73.80664062 C78.03699608 76.87114117 78.02051173 79.93554721 78 83 C75.7168756 84.1415622 74.36520695 84.15334372 71.82568359 84.20532227 C70.96494232 84.22526749 70.10420105 84.24521271 69.21737671 84.26576233 C68.28712677 84.28247482 67.35687683 84.29918732 66.3984375 84.31640625 C64.97103745 84.3475779 64.97103745 84.3475779 63.51480103 84.37937927 C60.46827568 84.44488133 57.42166257 84.5037628 54.375 84.5625 C52.31249084 84.60568459 50.24999063 84.64929886 48.1875 84.69335938 C43.12509046 84.8005634 38.06259245 84.90182902 33 85 C32.88391873 89.41644598 32.8127868 93.83250017 32.75 98.25 C32.71648437 99.50425781 32.68296875 100.75851563 32.6484375 102.05078125 C32.63554688 103.25605469 32.62265625 104.46132812 32.609375 105.703125 C32.58842773 106.81333008 32.56748047 107.92353516 32.54589844 109.06738281 C32.82546393 112.01577614 32.82546393 112.01577614 34.33447266 114.35766602 C38.65446147 117.01937739 43.06419031 116.58330495 48.0390625 116.57421875 C49.6548671 116.59546562 49.6548671 116.59546562 51.30331421 116.61714172 C54.74397769 116.65908203 58.1841167 116.6742917 61.625 116.6875 C65.07278052 116.71652738 68.52042698 116.75103634 71.96810913 116.78999329 C74.11373851 116.8125301 76.25945106 116.82831928 78.40518188 116.83683777 C79.85711441 116.84738945 79.85711441 116.84738945 81.33837891 116.8581543 C82.61933945 116.86337349 82.61933945 116.86337349 83.92617798 116.86869812 C86 117 86 117 88 118 C88.02886537 122.31248609 88.04675255 126.62494762 88.0625 130.9375 C88.07087891 132.16919922 88.07925781 133.40089844 88.08789062 134.66992188 C88.09111328 135.83974609 88.09433594 137.00957031 88.09765625 138.21484375 C88.10289307 139.29886475 88.10812988 140.38288574 88.11352539 141.49975586 C88 144 88 144 87 145 C85.02874724 145.12035798 83.05316316 145.17024268 81.07836914 145.19287109 C79.80937271 145.20893402 78.54037628 145.22499695 77.23292542 145.24154663 C75.83367585 145.25304054 74.43441877 145.26364798 73.03515625 145.2734375 C71.97957929 145.28142302 71.97957929 145.28142302 70.90267754 145.28956985 C67.16942305 145.31634319 63.43620229 145.33569431 59.70288086 145.35009766 C55.8663009 145.36664943 52.03059621 145.41133256 48.19434452 145.4624691 C45.23010926 145.49634256 42.26607519 145.50769748 39.30166435 145.51332474 C37.88919925 145.51999477 36.47674535 145.53510485 35.06447029 145.55921555 C24.45251393 145.72987261 17.07491452 144.04043429 8.625 137.5625 C0.86085381 129.98321444 -1.97908291 120.69430841 -2.13371277 110.04670715 C-2.1426689 108.05955625 -2.14614571 106.07237597 -2.14526367 104.08520508 C-2.15030159 102.4525193 -2.15030159 102.4525193 -2.15544128 100.78684998 C-2.16492218 97.19773206 -2.16689258 93.6086609 -2.16796875 90.01953125 C-2.17118194 87.52422567 -2.17454606 85.02892029 -2.17805481 82.53361511 C-2.18403792 77.30927086 -2.18589541 72.08494314 -2.18530273 66.8605957 C-2.18470065 60.82112119 -2.19528291 54.78173562 -2.2110464 48.74228364 C-2.22568458 42.92664463 -2.22929127 37.11104096 -2.22869301 31.29538536 C-2.22987571 28.82216718 -2.23431364 26.3489484 -2.24202538 23.87574196 C-2.2517799 20.42595549 -2.2489658 16.97640122 -2.24291992 13.52661133 C-2.24853943 12.49954071 -2.25415894 11.47247009 -2.25994873 10.41427612 C-2.25575424 9.47643784 -2.25155975 8.53859955 -2.24723816 7.57234192 C-2.24778293 6.7569737 -2.24832769 5.94160547 -2.24888897 5.10152912 C-2 3 -2 3 0 0 Z " fill="#004B85" transform="translate(49,64)"/>
<path d="M0 0 C2.57318919 -0.28654687 4.90497099 -0.37852887 7.47900391 -0.34057617 C8.6352401 -0.34123329 8.6352401 -0.34123329 9.81483459 -0.34190369 C12.36899937 -0.3398095 14.92251205 -0.31644941 17.4765625 -0.29296875 C19.24489992 -0.28737502 21.01324197 -0.28310387 22.78158569 -0.28010559 C27.44076322 -0.26863921 32.09966114 -0.23915675 36.75872803 -0.20599365 C41.51098854 -0.1753313 46.26329413 -0.16160847 51.015625 -0.14648438 C60.34387299 -0.11428866 69.67191327 -0.06307078 79 0 C78 3 78 3 76.0625 4.8125 C73.53191154 7.49645745 72.77651587 9.39979006 72 13 C72.19647556 18.50131571 73.72513408 21.63351211 77 26 C77.99 27.485 77.99 27.485 79 29 C74.71 29.33 70.42 29.66 66 30 C65.99191315 31.3964827 65.98382629 32.79296539 65.97549438 34.23176575 C65.89811378 47.37243202 65.81039508 60.51299371 65.71247292 73.65352345 C65.66232889 80.40969893 65.61588624 87.16586217 65.578125 93.92211914 C65.54169417 100.43848559 65.49499114 106.95473089 65.44193649 113.47098351 C65.42335951 115.96092094 65.40826387 118.45088679 65.39665604 120.94086647 C65.37985019 124.42010778 65.35082864 127.89904364 65.31884766 131.37817383 C65.31668747 132.41467072 65.31452728 133.4511676 65.31230164 134.51907349 C65.30113815 135.46558273 65.28997467 136.41209198 65.2784729 137.38728333 C65.27017676 138.62202503 65.27017676 138.62202503 65.26171303 139.88171101 C65 142 65 142 63 145 C60.44604513 145.26711404 58.13725626 145.34849029 55.5859375 145.29296875 C54.85629791 145.28872391 54.12665833 145.28447906 53.37490845 145.28010559 C51.04123241 145.26329353 48.7084156 145.22563868 46.375 145.1875 C44.79428329 145.17245634 43.21355307 145.15876738 41.6328125 145.14648438 C37.75487656 145.11338201 33.87758402 145.06158404 30 145 C28.24904225 141.96627965 27.75159613 139.7945121 27.75949097 136.30499268 C27.75674164 135.36552292 27.75399231 134.42605316 27.75115967 133.45811462 C27.75835022 132.43456375 27.76554077 131.41101288 27.77294922 130.35644531 C27.77265717 129.27321487 27.77236511 128.18998444 27.77206421 127.07392883 C27.77345803 123.49191286 27.78902196 119.91010465 27.8046875 116.328125 C27.80841744 113.84519565 27.8112645 111.36226484 27.81326294 108.8793335 C27.82012013 103.01100485 27.8358846 97.14275297 27.85596192 91.27445579 C27.88052049 83.93688881 27.89125405 76.59931745 27.90234375 69.26171875 C27.92379653 56.17444127 27.95755032 43.08722536 28 30 C26.74340576 29.970271 26.74340576 29.970271 25.46142578 29.93994141 C22.35634166 29.86189388 19.25165461 29.77520365 16.14697266 29.68261719 C14.14113029 29.62545964 12.13501082 29.57831404 10.12890625 29.53125 C8.87207031 29.49257812 7.61523438 29.45390625 6.3203125 29.4140625 C5.15773926 29.3826416 3.99516602 29.3512207 2.79736328 29.31884766 C0 29 0 29 -2 27 C-2.25878906 24.61743164 -2.25878906 24.61743164 -2.265625 21.66015625 C-2.26820313 20.59732422 -2.27078125 19.53449219 -2.2734375 18.43945312 C-2.26570312 17.32505859 -2.25796875 16.21066406 -2.25 15.0625 C-2.25773438 13.95197266 -2.26546875 12.84144531 -2.2734375 11.69726562 C-2.27085937 10.63314453 -2.26828125 9.56902344 -2.265625 8.47265625 C-2.26336914 7.49562744 -2.26111328 6.51859863 -2.25878906 5.51196289 C-2 3 -2 3 0 0 Z " fill="#004B85" transform="translate(570,64)"/>
<path d="M0 0 C1.60843029 -0.0051923 1.60843029 -0.0051923 3.24935412 -0.01048949 C6.86100169 -0.01846278 10.47225219 -0.00494417 14.08387947 0.00837994 C16.69180779 0.00707231 19.29973573 0.00444669 21.90766156 0.00061244 C27.58723278 -0.00560825 33.26670972 -0.00067842 38.94626999 0.01152706 C47.39156042 0.02962576 55.83679137 0.03053507 64.28209766 0.0279011 C78.48813639 0.02395834 92.69413328 0.03398761 106.90015984 0.05195332 C120.96786264 0.06969853 135.03554803 0.08124997 149.10326195 0.08451176 C149.97763433 0.08471798 150.85200671 0.08492419 151.75287522 0.08513666 C156.19328979 0.08615165 160.63370438 0.0870558 165.07411899 0.08791729 C196.53344921 0.09422014 227.99275666 0.11443672 259.45207405 0.14282513 C290.01620042 0.17037391 320.58032057 0.19162697 351.14445686 0.20434856 C352.55739705 0.20494043 352.55739705 0.20494043 353.99888148 0.20554426 C363.45834907 0.20949978 372.9178167 0.21332723 382.37728438 0.21706083 C401.64766748 0.22466967 420.91805018 0.23313343 440.18843269 0.24211407 C441.51749235 0.24273187 441.51749235 0.24273187 442.8734017 0.24336216 C502.05132801 0.27096864 561.22924164 0.31850477 620.40715218 0.36914349 C620.40715218 2.34914349 620.40715218 4.32914349 620.40715218 6.36914349 C619.86172568 6.36969965 619.31629919 6.37025581 618.75434463 6.37082883 C559.39481227 6.4314275 500.03528278 6.49448611 440.6757679 6.57046795 C439.78959521 6.57160157 438.90342253 6.5727352 437.99039612 6.57390317 C418.73318532 6.5985525 399.47597511 6.62364527 380.21876548 6.6491951 C370.77553902 6.66172135 361.33231243 6.67414958 351.88908577 6.6865263 C350.94935275 6.68775962 350.00961973 6.68899295 349.04140996 6.69026365 C318.56173565 6.73021981 288.08205839 6.76369815 257.60237291 6.79383039 C226.29017283 6.82481977 194.97798717 6.86231807 163.66580499 6.90804961 C159.2469179 6.91450036 154.82803071 6.92087641 150.40914345 6.92720699 C149.53941149 6.9284553 148.66967953 6.9297036 147.77359205 6.93098973 C133.75250118 6.95092152 119.7314119 6.96395688 105.71031113 6.97443676 C91.62697957 6.98510948 77.54367198 7.00299168 63.46035901 7.02831052 C55.08506295 7.04314634 46.70980358 7.052377 38.33449426 7.05371032 C32.09276679 7.05531112 25.85110013 7.06723094 19.60939398 7.0832779 C17.07502357 7.08815454 14.54064395 7.08961108 12.00626978 7.0874223 C8.5783111 7.08494639 5.15059994 7.0945876 1.7226696 7.10743046 C0.72404437 7.10378078 -0.27458085 7.10013109 -1.30346745 7.09637082 C-2.21407605 7.10229882 -3.12468464 7.10822682 -4.06288743 7.11433446 C-5.2392933 7.11573829 -5.2392933 7.11573829 -6.43946494 7.11717048 C-8.89766279 7.40481069 -10.49816819 8.06354326 -12.59284782 9.36914349 C-13.99264014 12.16872812 -13.72528113 14.47668422 -13.73328972 17.60985088 C-13.73626084 18.25716689 -13.73923196 18.90448289 -13.74229312 19.57141453 C-13.75099684 21.75066719 -13.75248982 23.92986503 -13.75398064 26.10913372 C-13.75860793 27.66791686 -13.76363247 29.22669887 -13.7690258 30.78547955 C-13.7821674 35.02976556 -13.78859912 39.27403573 -13.79303646 43.51833892 C-13.79596663 46.17212655 -13.80007151 48.82590986 -13.80454063 51.47969532 C-13.8182252 59.78828869 -13.82788503 68.09687217 -13.83174253 76.40547603 C-13.83621449 85.98472413 -13.85371816 95.56382891 -13.88274312 105.14303344 C-13.90440945 112.55210453 -13.91444958 119.96113547 -13.91578364 127.37023789 C-13.91682888 131.79217984 -13.92267549 136.21398725 -13.94060326 140.63589573 C-13.95716787 144.80310644 -13.95919905 148.97008275 -13.95046425 153.1373148 C-13.94969812 154.65979423 -13.95398003 156.18228669 -13.9639225 157.70473385 C-14.06831109 174.69838738 -10.29584667 189.18967275 1.86808968 201.62695599 C3.40715218 203.36914349 3.40715218 203.36914349 3.40715218 205.36914349 C3.96273811 205.62953411 4.51832405 205.88992474 5.09074593 206.15820599 C7.68899089 207.51647907 10.03922359 209.1047675 12.46965218 210.74414349 C24.62332366 218.51796793 39.79644363 222.60951964 54.18058968 219.83398724 C58.17332775 218.73688353 61.07539618 217.60611205 64.46965218 215.18164349 C68.49898843 212.69545728 71.78938694 212.42909842 76.40715218 213.36914349 C79.26696288 214.71563769 80.2605874 215.84692987 82.40715218 218.36914349 C83.72603472 222.55853508 83.53793475 224.87870884 82.40715218 229.11914349 C79.87483585 233.23415752 78.03040392 234.1153803 73.40715218 235.36914349 C68.37298629 235.36914349 64.75531508 233.05996461 60.55558968 230.52539349 C56.94886825 228.58432159 53.49362815 228.22475931 49.44230843 227.97461224 C27.58993935 226.46881874 9.00246459 221.68555449 -6.10847282 204.50976849 C-17.5219427 189.9216911 -21.05581113 175.38491731 -20.99690056 157.16089153 C-21.00261375 155.55325633 -21.00958166 153.94562517 -21.01769829 152.3380003 C-21.03553078 148.00361702 -21.03448127 143.66943725 -21.0287559 139.33502841 C-21.02565255 135.70893343 -21.03176853 132.08287689 -21.03779465 128.45678741 C-21.05180289 119.90467196 -21.05030682 111.35265651 -21.03889275 102.80053997 C-21.02738839 93.98608164 -21.04153439 85.17192676 -21.06828922 76.35750836 C-21.09044274 68.77421896 -21.09708518 61.19102487 -21.09121281 53.60770541 C-21.08784443 49.08487528 -21.09025161 44.5622401 -21.10746384 40.03943729 C-21.12292764 35.79160159 -21.11898401 31.54421697 -21.10015869 27.29639912 C-21.09647261 25.739568 -21.0995819 24.18270346 -21.11004448 22.62590313 C-21.12325451 20.49765767 -21.11170994 18.3709061 -21.09405327 16.24272442 C-21.09384398 15.05314979 -21.0936347 13.86357515 -21.09341908 12.6379528 C-20.47013714 8.56782334 -19.25303146 6.49949419 -16.59284782 3.36914349 C-11.18748373 -0.21923076 -6.25688313 -0.04947998 0 0 Z M67.53215218 219.49414349 C65.84145043 222.31197974 65.87170989 224.15648975 66.40715218 227.36914349 C68.49636974 229.53934641 68.49636974 229.53934641 71.40715218 230.36914349 C75.2602002 229.47308581 76.17484483 228.7176045 78.40715218 225.36914349 C78.08301527 222.04674025 77.79938914 220.76138045 75.40715218 218.36914349 C72.30367963 218.03898683 70.24934041 217.86383054 67.53215218 219.49414349 Z " fill="#E57918" transform="translate(20.59284782409668,22.63085651397705)"/>
<path d="M0 0 C1.08946678 -0.00855011 1.08946678 -0.00855011 2.20094299 -0.01727295 C3.74014829 -0.026735 5.27937395 -0.0332617 6.81860352 -0.03710938 C9.17825486 -0.04682087 11.53703749 -0.07783357 13.89648438 -0.109375 C15.38931772 -0.1159042 16.88215732 -0.121155 18.375 -0.125 C19.08337509 -0.1373468 19.79175018 -0.1496936 20.52159119 -0.16241455 C22.51342773 -0.15332031 22.51342773 -0.15332031 25.75390625 0.203125 C28.03573533 3.62586863 28.00492038 4.84306688 28.00787354 8.8653717 C28.01351318 10.04458694 28.01915283 11.22380219 28.02496338 12.43875122 C28.02091492 13.7339267 28.01686646 15.02910217 28.01269531 16.36352539 C28.01540507 17.74001755 28.01896592 19.11650826 28.02331543 20.49299622 C28.03244268 24.2325391 28.02889405 27.97197178 28.02255726 31.71151662 C28.01750002 35.62103021 28.02218785 39.53053426 28.02532959 43.44004822 C28.02896961 50.00472715 28.02416875 56.5693611 28.01464844 63.1340332 C28.00375928 70.73045454 28.00729264 78.32676857 28.01830125 85.92318732 C28.02736771 92.43958267 28.02866269 98.95594567 28.02342391 105.47234529 C28.02030125 109.36689192 28.01990303 113.26138806 28.02649689 117.15593147 C28.03226059 120.81586818 28.02829152 124.47566604 28.01670837 128.13558769 C28.01278869 130.12473228 28.01875543 132.11388858 28.02496338 134.10302734 C28.01650391 135.86762047 28.01650391 135.86762047 28.00787354 137.66786194 C28.00711948 138.69453004 28.00636543 139.72119814 28.00558853 140.77897739 C27.75390625 143.203125 27.75390625 143.203125 25.75390625 145.203125 C23.25646763 145.39034352 20.87201942 145.45892267 18.375 145.43359375 C17.64773209 145.43313553 16.92046417 145.43267731 16.17115784 145.4322052 C14.63370126 145.42918336 13.09624773 145.42129905 11.55883789 145.40893555 C9.1973189 145.39067073 6.83619164 145.3884259 4.47460938 145.38867188 C2.98306951 145.38375703 1.49153231 145.37792886 0 145.37109375 C-0.71039932 145.36998093 -1.42079865 145.3688681 -2.15272522 145.36772156 C-7.1300401 145.31917865 -7.1300401 145.31917865 -8.24609375 144.203125 C-8.34476002 142.35782327 -8.37241531 140.50870412 -8.37307739 138.6607666 C-8.37589722 137.45761307 -8.37871704 136.25445953 -8.38162231 135.0148468 C-8.37967772 133.66940293 -8.37762954 132.3239592 -8.37548828 130.97851562 C-8.37684229 129.5711411 -8.37862222 128.16376693 -8.38079834 126.75639343 C-8.3853727 122.92385432 -8.3835831 119.09134201 -8.38041925 115.25880241 C-8.37789567 111.25672201 -8.38023319 107.25464397 -8.38180542 103.25256348 C-8.38362712 96.53051337 -8.3812208 89.80847423 -8.37646484 83.08642578 C-8.37102222 75.30373776 -8.37278488 67.52107593 -8.37829125 59.73838854 C-8.38282237 53.06834199 -8.38347293 46.39830334 -8.38085258 39.72825575 C-8.3792898 35.73926838 -8.37909607 31.75029335 -8.38238907 27.76130676 C-8.38526777 24.01197388 -8.38329212 20.26267492 -8.37749481 16.51334572 C-8.37616721 15.13341643 -8.37656134 13.75348431 -8.37875748 12.37355614 C-8.38146892 10.49753289 -8.37747421 8.62150345 -8.37307739 6.7454834 C-8.37270037 5.69317284 -8.37232334 4.64086227 -8.37193489 3.55666351 C-8.10784444 -1.38247669 -3.95031959 0.02363231 0 0 Z " fill="#004B85" transform="translate(400.24609375,63.796875)"/>
<path d="M0 0 C2.31 0 4.62 0 7 0 C7.07009725 18.67161834 7.12299169 37.34320997 7.15543652 56.01493263 C7.17090198 64.68464177 7.19198535 73.35426913 7.22631836 82.02392578 C7.25623055 89.58085891 7.27557734 97.1377328 7.28226548 104.69472349 C7.28617467 108.69569251 7.29535505 112.69649208 7.31719017 116.69740677 C7.33758413 120.46484952 7.34382797 124.23205334 7.33932304 127.99954605 C7.34014695 129.38061319 7.34609542 130.76168849 7.35761642 132.14270782 C7.37260418 134.03230474 7.36715176 135.92203047 7.36076355 137.81167603 C7.36352893 138.86805079 7.36629431 139.92442554 7.36914349 141.01281166 C6.78008138 145.77962865 5.02613982 149.02648273 1.5625 152.3125 C-2.6463605 155.08418862 -6.20228119 155.12609383 -11.1862793 155.1418457 C-13.06424446 155.15239738 -13.06424446 155.15239738 -14.98014832 155.16316223 C-15.98015901 155.16588607 -15.98015901 155.16588607 -17.00037193 155.16866493 C-19.09937208 155.17586756 -21.19814344 155.19156378 -23.29707336 155.21000671 C-29.26369003 155.26228538 -35.2301809 155.31038782 -41.19702148 155.32592773 C-44.85235374 155.33606934 -48.50710777 155.36554883 -52.16221046 155.40724754 C-53.54747943 155.4194762 -54.93283036 155.42469382 -56.31815147 155.42244911 C-64.48308571 155.41247796 -70.85366326 155.91397062 -78 160 C-82.94112083 162.58383397 -86.46832698 163.63901423 -92 162 C-94.9375 160.0625 -94.9375 160.0625 -97 157 C-97.92932618 152.03544172 -97.78094602 148.27554517 -95.125 143.9375 C-91.79358409 140.90003255 -89.23288553 140.55566731 -84.71484375 140.5703125 C-80.2561271 141.27600866 -76.61561975 143.42430437 -72.69921875 145.58984375 C-68.41472644 147.82819646 -64.91692483 148.12769799 -60.1015625 148.14526367 C-58.91353027 148.15164352 -57.72549805 148.15802338 -56.50146484 148.16459656 C-55.22223145 148.16570938 -53.94299805 148.1668222 -52.625 148.16796875 C-50.65007568 148.17296135 -50.65007568 148.17296135 -48.63525391 148.17805481 C-45.85122864 148.18403458 -43.06723436 148.18589582 -40.28320312 148.18530273 C-36.71884099 148.185201 -33.15467755 148.19886983 -29.59036255 148.21607494 C-26.18523859 148.22987407 -22.78015157 148.22928366 -19.375 148.23046875 C-18.0957666 148.23765427 -16.8165332 148.24483978 -15.49853516 148.25224304 C-14.31050293 148.24916641 -13.1224707 148.24608978 -11.8984375 148.24291992 C-10.85349121 148.24434494 -9.80854492 148.24576996 -8.73193359 148.24723816 C-5.95257499 147.99570807 -4.32155344 147.52109349 -2 146 C-0.66546795 143.3309359 -0.85998195 141.28274949 -0.84178162 138.29269409 C-0.8319928 137.07830658 -0.82220398 135.86391907 -0.81211853 134.61273193 C-0.80621398 133.25988809 -0.80040356 131.90704383 -0.79467773 130.55419922 C-0.78510161 129.13520012 -0.77509169 127.7162039 -0.76467896 126.29721069 C-0.73759499 122.43796639 -0.71660437 118.57870982 -0.69667697 114.71942282 C-0.67483892 110.68883103 -0.64743958 106.65827723 -0.62062073 102.62771606 C-0.57066429 94.99212088 -0.52573643 87.35650465 -0.48259836 79.72086823 C-0.43325117 71.02930559 -0.37832372 62.33778106 -0.32291877 53.64625525 C-0.20905344 35.76420553 -0.10222433 17.88211987 0 0 Z M-90.875 147.125 C-92.56570175 149.94283625 -92.53544229 151.78734627 -92 155 C-89.91078244 157.17020292 -89.91078244 157.17020292 -87 158 C-84.24308557 157.66390749 -84.24308557 157.66390749 -82 156 C-80.33609251 153.75691443 -80.33609251 153.75691443 -80 151 C-80.82979708 148.08921756 -80.82979708 148.08921756 -83 146 C-86.21265373 145.46455771 -88.05716375 145.43429825 -90.875 147.125 Z " fill="#E77616" transform="translate(706,95)"/>
<path d="M0 0 C18.93128599 0 37.25142052 6.40246391 51.375 19.3125 C52.25542969 20.10140625 53.13585937 20.8903125 54.04296875 21.703125 C64.78125755 31.83414505 71.87688884 43.21841838 76.375 57.3125 C76.69339844 58.22902344 77.01179687 59.14554688 77.33984375 60.08984375 C80.15711477 69.34659139 80.25555554 79.69976865 79.375 89.3125 C78.375 90.3125 78.375 90.3125 76.34375 90.4453125 C75.12171875 90.44144531 75.12171875 90.44144531 73.875 90.4375 C73.0603125 90.44007812 72.245625 90.44265625 71.40625 90.4453125 C69.375 90.3125 69.375 90.3125 68.375 89.3125 C68.13639895 87.61519602 67.95453364 85.90985141 67.796875 84.203125 C66.22451238 67.19993089 66.22451238 67.19993089 60.375 51.3125 C59.93285156 50.44109375 59.49070312 49.5696875 59.03515625 48.671875 C55.38609229 42.0813218 50.6281553 36.67452898 45.375 31.3125 C44.78332031 30.68472656 44.19164062 30.05695312 43.58203125 29.41015625 C39.39082465 25.32997499 34.67417204 22.68902606 29.5 20.0625 C28.85216553 19.7329834 28.20433105 19.4034668 27.53686523 19.06396484 C18.69917349 14.77403626 10.07390437 12.89015578 0.3125 12.1875 C-1.55368471 12.04287386 -3.41959475 11.89464199 -5.28515625 11.7421875 C-6.09605713 11.68272949 -6.90695801 11.62327148 -7.74243164 11.56201172 C-9.625 11.3125 -9.625 11.3125 -10.625 10.3125 C-10.7229057 8.81511876 -10.75474864 7.31307108 -10.75 5.8125 C-10.75257813 4.9978125 -10.75515625 4.183125 -10.7578125 3.34375 C-10.4305477 -1.66147639 -3.85260135 0.02656279 0 0 Z " fill="#EA7B18" transform="translate(656.625,-0.3125)"/>
<path d="M0 0 C2.04870784 0.46908345 4.11858899 0.84866832 6.1953125 1.171875 C23.73823471 4.02468389 38.03036609 12.1598653 48.70703125 26.5859375 C55.10258545 36.355645 58.61074926 46.26053132 59.5859375 57.86328125 C59.65184736 59.66955918 59.65184736 59.66955918 60.83203125 60.6484375 C61.41174139 67.72090127 61.41174139 67.72090127 59.26953125 71.1484375 C55.88314796 73.23236568 53.73817807 73.20645847 49.83203125 72.6484375 C47.07892288 70.69228155 46.06895313 69.32535715 44.95703125 66.1484375 C44.83203125 63.6484375 44.83203125 63.6484375 45.8515625 61.828125 C47.89764892 57.2794548 46.11103053 52.26441432 44.83203125 47.6484375 C39.54491635 34.29228222 31.89722207 24.13078218 18.83203125 17.6484375 C10.45594151 14.26878269 3.50205815 13.16573967 -5.42578125 14.6796875 C-8.16796875 14.6484375 -8.16796875 14.6484375 -10.5078125 12.93359375 C-13.1724654 9.2657774 -12.66318526 7.10538606 -12.16796875 2.6484375 C-8.95088864 -2.10058552 -5.06980684 -1.26130897 0 0 Z M-7.85546875 4.1484375 C-8.28859375 4.6434375 -8.72171875 5.1384375 -9.16796875 5.6484375 C-8.38666804 8.14396234 -8.38666804 8.14396234 -7.16796875 10.6484375 C-6.17796875 10.9784375 -5.18796875 11.3084375 -4.16796875 11.6484375 C-1.97758452 10.27675512 -1.97758452 10.27675512 -0.16796875 8.6484375 C-0.74141812 5.78119064 -1.02942025 4.786986 -3.16796875 2.6484375 C-6.17056392 2.31625558 -6.17056392 2.31625558 -7.85546875 4.1484375 Z M50.01953125 61.8359375 C48.632622 63.5751242 48.632622 63.5751242 48.89453125 65.7109375 C50.09259027 68.18692615 51.31632489 68.67461568 53.83203125 69.6484375 C55.15203125 68.3284375 56.47203125 67.0084375 57.83203125 65.6484375 C56.85820943 63.13273114 56.3705199 61.90899652 53.89453125 60.7109375 C51.75871795 60.44902825 51.75871795 60.44902825 50.01953125 61.8359375 Z " fill="#E87A17" transform="translate(656.16796875,19.3515625)"/>
<path d="M0 0 C12.86541893 0.28627241 22.03101182 4.43325719 31.375 13.0625 C39.48903256 21.58061785 42.06111124 31.85343628 42.375 43.375 C42.125 47.3125 42.125 47.3125 40.125 49.3125 C37.99609375 49.54296875 37.99609375 49.54296875 35.5625 49.5 C34.75683594 49.49355469 33.95117188 49.48710938 33.12109375 49.48046875 C31.125 49.3125 31.125 49.3125 30.125 48.3125 C29.9122139 46.52383272 29.70505051 44.7342579 29.53100586 42.94140625 C28.42629483 31.86220377 26.31140646 25.32884301 17.46875 18.0078125 C10.97804491 13.31286915 4.67843865 12.90405502 -3.21484375 12.5234375 C-5.875 12.3125 -5.875 12.3125 -6.875 11.3125 C-7.04296875 9.31640625 -7.04296875 9.31640625 -7.0625 6.875 C-7.07667969 6.07191406 -7.09085938 5.26882812 -7.10546875 4.44140625 C-6.62040028 -0.03931098 -3.82900881 0.01664786 0 0 Z " fill="#EA7B18" transform="translate(652.875,40.6875)"/>
<path d="M0 0 C3.96287066 1.37055803 6.5335833 3.32294351 8.9375 6.8125 C10.5713518 11.7140554 10.59680034 15.30906571 8.875 20.1875 C6.53351018 23.69973473 4.83378636 25.18766463 1 27 C-3.96559493 27.79126553 -7.81722717 27.51611905 -12.4375 25.5 C-15.7353479 22.28258742 -17.28548616 19.56004341 -18 15 C-17.89881708 10.95268306 -17.27333567 7.48497041 -14.58984375 4.35546875 C-9.90231432 0.3589756 -6.08298864 -0.7795888 0 0 Z " fill="#EB7C18" transform="translate(661,65)"/>
<path d="M0 0 C1.32 0 2.64 0 4 0 C5.65 4.29 7.3 8.58 9 13 C10.8272911 10.25906335 11.93698178 7.86174676 13.125 4.8125 C13.47820312 3.91144531 13.83140625 3.01039063 14.1953125 2.08203125 C14.46085938 1.39496094 14.72640625 0.70789063 15 0 C16.65 0 18.3 0 20 0 C20 8.91 20 17.82 20 27 C18.35 26.67 16.7 26.34 15 26 C14.67 23.03 14.34 20.06 14 17 C13.01 18.98 12.02 20.96 11 23 C9.125 22.8125 9.125 22.8125 7 22 C5.75 19.4375 5.75 19.4375 5 17 C4.67 20.3 4.34 23.6 4 27 C2.35 27 0.7 27 -1 27 C-1.02886537 22.68751391 -1.04675255 18.37505238 -1.0625 14.0625 C-1.07087891 12.83080078 -1.07925781 11.59910156 -1.08789062 10.33007812 C-1.09111328 9.16025391 -1.09433594 7.99042969 -1.09765625 6.78515625 C-1.10289307 5.70113525 -1.10812988 4.61711426 -1.11352539 3.50024414 C-1 1 -1 1 0 0 Z M15 12 C16 14 16 14 16 14 Z " fill="#00457D" transform="translate(135,233)"/>
<path d="M0 0 C1.32 0 2.64 0 4 0 C5.98 4.62 7.96 9.24 10 14 C11.0828125 10.8134375 11.0828125 10.8134375 12.1875 7.5625 C13.41796875 3.94140625 13.41796875 3.94140625 15 1 C16.65 0.67 18.3 0.34 20 0 C20 8.91 20 17.82 20 27 C18.68 27 17.36 27 16 27 C15.67 23.04 15.34 19.08 15 15 C14.01 17.64 13.02 20.28 12 23 C10.35 22.67 8.7 22.34 7 22 C6.34 20.02 5.68 18.04 5 16 C4.67 19.63 4.34 23.26 4 27 C2.35 26.67 0.7 26.34 -1 26 C-1.02886751 21.85418113 -1.04675327 17.70838784 -1.0625 13.5625 C-1.07087891 12.37849609 -1.07925781 11.19449219 -1.08789062 9.97460938 C-1.09111328 8.84990234 -1.09433594 7.72519531 -1.09765625 6.56640625 C-1.10289307 5.52427979 -1.10812988 4.48215332 -1.11352539 3.40844727 C-1 1 -1 1 0 0 Z " fill="#00467F" transform="translate(515,233)"/>
<path d="M0 0 C3.08335283 0.05734419 5.34340454 0.27859323 8.3125 1.1875 C10.92749618 3.97120561 11.05594641 6.27389688 11.40234375 9.99609375 C11.23067184 12.53595758 10.42691566 14.02226679 9.25 16.25 C9.52034634 18.68717258 9.52034634 18.68717258 10.25 21.25 C10.58944795 23.24897128 10.92421616 25.24875639 11.25 27.25 C9.6 27.25 7.95 27.25 6.25 27.25 C5.59 24.28 4.93 21.31 4.25 18.25 C2.6 18.25 0.95 18.25 -0.75 18.25 C-0.75 21.22 -0.75 24.19 -0.75 27.25 C-2.4 26.92 -4.05 26.59 -5.75 26.25 C-5.77886751 22.10418113 -5.79675327 17.95838784 -5.8125 13.8125 C-5.82087891 12.62849609 -5.82925781 11.44449219 -5.83789062 10.22460938 C-5.84111328 9.09990234 -5.84433594 7.97519531 -5.84765625 6.81640625 C-5.85289307 5.77427979 -5.85812988 4.73215332 -5.86352539 3.65844727 C-5.66459431 -0.56188633 -3.76641318 0.06685941 0 0 Z M-0.75 5.25 C-0.75 7.89 -0.75 10.53 -0.75 13.25 C1.24954746 13.29254356 3.25041636 13.29080783 5.25 13.25 C6.59404775 12.13163776 6.59404775 12.13163776 6.375 9.25 C6.59404775 6.36836224 6.59404775 6.36836224 5.25 5.25 C3.25041636 5.20919217 1.24954746 5.20745644 -0.75 5.25 Z " fill="#004276" transform="translate(396.75,232.75)"/>
<path d="M0 0 C11.44444444 0 11.44444444 0 15 3 C17.49508858 6.74263288 17.33112659 8.90868692 17.375 13.375 C17.40335938 14.68210938 17.43171875 15.98921875 17.4609375 17.3359375 C16.93767625 21.49542101 15.9394989 23.08235611 13 26 C11 27 11 27 0 27 C0 18.09 0 9.18 0 0 Z M5 5 C5 10.94 5 16.88 5 23 C9.86132495 22.50847518 9.86132495 22.50847518 12 20 C12.32027305 16.94180773 12.32027305 16.94180773 12.25 13.5 C12.25515625 12.3346875 12.2603125 11.169375 12.265625 9.96875 C12.30925773 6.88173935 12.30925773 6.88173935 10 5 C8.35 5 6.7 5 5 5 Z " fill="#004881" transform="translate(580,233)"/>
<path d="M0 0 C11.42307692 0 11.42307692 0 15 3 C16.58324827 6.16649654 16.30271677 9.54230175 16 13 C15.62875 13.804375 15.2575 14.60875 14.875 15.4375 C13.50083338 19.46184511 14.86768381 23.00205283 16 27 C14.35 27 12.7 27 11 27 C10.34 24.03 9.68 21.06 9 18 C7.35 18 5.7 18 4 18 C4 20.97 4 23.94 4 27 C2.68 27 1.36 27 0 27 C0 18.09 0 9.18 0 0 Z M4 5 C4 7.64 4 10.28 4 13 C5.99954746 13.04254356 8.00041636 13.04080783 10 13 C11.34404775 11.88163776 11.34404775 11.88163776 11.125 9 C11.34404775 6.11836224 11.34404775 6.11836224 10 5 C8.00041636 4.95919217 5.99954746 4.95745644 4 5 Z " fill="#004881" transform="translate(237,233)"/>
<path d="M0 0 C10 0 10 0 13.0625 0.9375 C15.69479735 3.73962299 15.80891909 6.0972992 16.15234375 9.84375 C16 12 16 12 14 15 C14.37594266 19.06018078 15.15437955 23.01350357 16 27 C14.35 27 12.7 27 11 27 C10.34 24.03 9.68 21.06 9 18 C7.35 18 5.7 18 4 18 C4 20.97 4 23.94 4 27 C2.68 27 1.36 27 0 27 C0 18.09 0 9.18 0 0 Z M4 5 C4 7.64 4 10.28 4 13 C5.99954746 13.04254356 8.00041636 13.04080783 10 13 C11.34404775 11.88163776 11.34404775 11.88163776 11.125 9 C11.34404775 6.11836224 11.34404775 6.11836224 10 5 C8.00041636 4.95919217 5.99954746 4.95745644 4 5 Z " fill="#004881" transform="translate(177,233)"/>
<path d="M0 0 C11.42307692 0 11.42307692 0 15 3 C16.62169093 6.24338187 16.30955934 9.75193321 16.375 13.3125 C16.41238281 14.07240234 16.44976562 14.83230469 16.48828125 15.61523438 C16.55002348 19.56330716 16.24518188 21.59362407 14.1640625 25.04296875 C11 27 11 27 0 27 C0 18.09 0 9.18 0 0 Z M4 5 C4 10.94 4 16.88 4 23 C5.98 22.67 7.96 22.34 10 22 C12.23465229 18.64802157 12.27108649 17.42208754 12.25 13.5 C12.25515625 12.5409375 12.2603125 11.581875 12.265625 10.59375 C12.17982609 7.76377103 12.17982609 7.76377103 10 5 C8.02 5 6.04 5 4 5 Z " fill="#004780" transform="translate(275,233)"/>
<path d="M0 0 C3.24742856 2.33148717 4.27988668 4.16388229 5 8 C5.47128108 14.50730408 5.9013943 20.4480158 2 26 C-1.12942465 27.56471233 -4.61082223 27.69701958 -8 27 C-10.2265625 25.57421875 -10.2265625 25.57421875 -12 23 C-12.587893 19.82196422 -12.55834377 16.72349311 -12.5 13.5 C-12.51546875 12.64535156 -12.5309375 11.79070312 -12.546875 10.91015625 C-12.52241173 6.98991737 -12.49488961 4.71194646 -10.21875 1.4375 C-6.78338291 -0.78823079 -3.95558777 -0.81223568 0 0 Z M-6.60546875 5.09375 C-8.64437799 7.88083042 -8.36243554 10.08901846 -8.3125 13.5 C-8.30863281 14.6446875 -8.30476563 15.789375 -8.30078125 16.96875 C-8.2222789 20.17556545 -8.2222789 20.17556545 -6 23 C-3.52733235 22.65555119 -3.52733235 22.65555119 -1 22 C0.41514574 19.16970852 0.20780992 16.71620867 0.25 13.5625 C0.27578125 12.40878906 0.3015625 11.25507813 0.328125 10.06640625 C0.26061487 7.02397699 0.26061487 7.02397699 -1.390625 5.08984375 C-3.57704144 3.6092365 -4.42264477 3.60666797 -6.60546875 5.09375 Z " fill="#004780" transform="translate(267,233)"/>
<path d="M0 0 C2.375 1.125 2.375 1.125 4 3 C4.75 6.1875 4.75 6.1875 5 9 C3.35 9 1.7 9 0 9 C-0.66 7.68 -1.32 6.36 -2 5 C-3.32 5 -4.64 5 -6 5 C-5.65418746 7.8529535 -5.25060578 8.7985515 -2.96875 10.6328125 C-2.1540625 11.12523437 -1.339375 11.61765625 -0.5 12.125 C3.90888383 14.81776765 3.90888383 14.81776765 5 17 C5.37663145 20.46500939 5.38526209 22.36348003 3.5625 25.375 C-0.10493887 27.70069294 -3.76008978 27.86672198 -8 27 C-10.63350675 24.98335069 -10.96440933 24.16501127 -11.6875 20.8125 C-11.790625 19.884375 -11.89375 18.95625 -12 18 C-10.35 18 -8.7 18 -7 18 C-6.34 19.32 -5.68 20.64 -5 22 C-3.68 22 -2.36 22 -1 22 C-1 20.68 -1 19.36 -1 18 C-2.93937956 16.23398295 -2.93937956 16.23398295 -5.4375 14.8125 C-6.26121094 14.30332031 -7.08492188 13.79414063 -7.93359375 13.26953125 C-8.61550781 12.85058594 -9.29742187 12.43164062 -10 12 C-11 11 -11 11 -11.3125 7.6875 C-11 4 -11 4 -9.4375 1.5625 C-6.08147594 -0.58879747 -3.91578329 -0.48947291 0 0 Z " fill="#00457E" transform="translate(127,233)"/>
<path d="M0 0 C2.375 1.125 2.375 1.125 4 3 C4.75 6.1875 4.75 6.1875 5 9 C3.35 9 1.7 9 0 9 C-0.66 7.68 -1.32 6.36 -2 5 C-3.32 5.33 -4.64 5.66 -6 6 C-6 7.32 -6 8.64 -6 10 C-5.113125 10.226875 -4.22625 10.45375 -3.3125 10.6875 C0.55661931 12.22054727 2.45904238 13.7117019 5 17 C5.6646293 20.61853729 5.46543651 22.23101795 3.5625 25.375 C-0.20876052 27.76653106 -3.65749454 27.93224429 -8 27 C-10.5625 24.75 -10.5625 24.75 -12 22 C-12 20.68 -12 19.36 -12 18 C-10.35 18 -8.7 18 -7 18 C-6.34 19.32 -5.68 20.64 -5 22 C-3.35 22 -1.7 22 0 22 C-0.36561315 19.35633571 -0.65043664 18.27811414 -2.77734375 16.5859375 C-3.49019531 16.18632812 -4.20304687 15.78671875 -4.9375 15.375 C-7.32419292 14.01488825 -9.04330487 12.95669513 -11 11 C-11.67911715 3.86926995 -11.67911715 3.86926995 -9.4375 1 C-6.08597404 -0.37498501 -3.59034613 -0.38467994 0 0 Z " fill="#00447C" transform="translate(359,233)"/>
<path d="M0 0 C1.32 0 2.64 0 4 0 C4.01981934 0.55985596 4.03963867 1.11971191 4.06005859 1.6965332 C4.15537783 4.23565854 4.26502753 6.77396888 4.375 9.3125 C4.4059375 10.19357422 4.436875 11.07464844 4.46875 11.98242188 C4.50742187 12.82998047 4.54609375 13.67753906 4.5859375 14.55078125 C4.6173584 15.33106689 4.6487793 16.11135254 4.68115234 16.9152832 C4.89587889 19.30155768 4.89587889 19.30155768 7 22 C8.32 21.67 9.64 21.34 11 21 C11.33 14.4 11.66 7.8 12 1 C13.65 0.67 15.3 0.34 17 0 C17.11654436 3.5622231 17.1873639 7.12395342 17.25 10.6875 C17.30027344 12.19860352 17.30027344 12.19860352 17.3515625 13.74023438 C17.44975721 21.17848401 17.44975721 21.17848401 15.265625 25.16796875 C12.76266589 27.19191327 11.68261757 27.67949688 8.5 27.625 C7.7471875 27.63789063 6.994375 27.65078125 6.21875 27.6640625 C2.67135427 26.60234195 1.77993008 25.2511786 0 22 C-0.47836981 18.2148989 -0.37666517 14.49476268 -0.25 10.6875 C-0.23195313 9.66076172 -0.21390625 8.63402344 -0.1953125 7.57617188 C-0.14831063 5.04982115 -0.08262272 2.52539531 0 0 Z " fill="#004882" transform="translate(294,233)"/>
<path d="M0 0 C0.87269531 -0.01417969 1.74539063 -0.02835938 2.64453125 -0.04296875 C5.33276695 0.20066551 6.92530852 0.73868073 9.1875 2.1875 C10.47754296 4.76758592 10.39160224 6.74491574 10.4375 9.625 C10.46328125 10.59308594 10.4890625 11.56117188 10.515625 12.55859375 C10.1875 15.1875 10.1875 15.1875 8.93359375 17.0234375 C5.82914903 19.09306732 2.82464626 18.36637605 -0.8125 18.1875 C-0.8125 21.1575 -0.8125 24.1275 -0.8125 27.1875 C-2.4625 27.1875 -4.1125 27.1875 -5.8125 27.1875 C-5.84136537 22.87501391 -5.85925255 18.56255238 -5.875 14.25 C-5.88337891 13.01830078 -5.89175781 11.78660156 -5.90039062 10.51757812 C-5.90361328 9.34775391 -5.90683594 8.17792969 -5.91015625 6.97265625 C-5.91539307 5.88863525 -5.92062988 4.80461426 -5.92602539 3.68774414 C-5.72901865 -0.65106454 -3.87285125 0.02835177 0 0 Z M-0.8125 5.1875 C-0.8125 8.1575 -0.8125 11.1275 -0.8125 14.1875 C1.60395782 14.35437448 1.60395782 14.35437448 4.1875 14.1875 C4.8475 13.5275 5.5075 12.8675 6.1875 12.1875 C5.86423447 8.59070934 5.86423447 8.59070934 5.1875 5.1875 C3.2075 5.1875 1.2275 5.1875 -0.8125 5.1875 Z " fill="#004981" transform="translate(378.8125,232.8125)"/>
<path d="M0 0 C1.79244141 0.01740234 1.79244141 0.01740234 3.62109375 0.03515625 C5.41740234 0.04869141 5.41740234 0.04869141 7.25 0.0625 C8.17683594 0.07410156 9.10367188 0.08570313 10.05859375 0.09765625 C10.05859375 1.74765625 10.05859375 3.39765625 10.05859375 5.09765625 C7.08859375 5.09765625 4.11859375 5.09765625 1.05859375 5.09765625 C1.05859375 7.07765625 1.05859375 9.05765625 1.05859375 11.09765625 C3.36859375 11.09765625 5.67859375 11.09765625 8.05859375 11.09765625 C8.62109375 13.03515625 8.62109375 13.03515625 9.05859375 15.09765625 C8.05859375 16.09765625 8.05859375 16.09765625 4.49609375 16.16015625 C3.36171875 16.13953125 2.22734375 16.11890625 1.05859375 16.09765625 C1.05859375 18.40765625 1.05859375 20.71765625 1.05859375 23.09765625 C4.35859375 23.09765625 7.65859375 23.09765625 11.05859375 23.09765625 C10.72859375 24.41765625 10.39859375 25.73765625 10.05859375 27.09765625 C5.43859375 27.09765625 0.81859375 27.09765625 -3.94140625 27.09765625 C-3.96822924 22.78511542 -3.98815869 18.47273918 -4.00390625 14.16015625 C-4.01228516 12.92845703 -4.02066406 11.69675781 -4.02929688 10.42773438 C-4.03251953 9.25791016 -4.03574219 8.08808594 -4.0390625 6.8828125 C-4.04429932 5.7987915 -4.04953613 4.71477051 -4.05493164 3.59790039 C-3.89032257 -0.02739318 -3.67639188 0.12205816 0 0 Z " fill="#004780" transform="translate(566.94140625,232.90234375)"/>
<path d="M0 0 C0.87269531 -0.01417969 1.74539062 -0.02835938 2.64453125 -0.04296875 C5.33276695 0.20066551 6.92530852 0.73868073 9.1875 2.1875 C10.47754296 4.76758592 10.39160224 6.74491574 10.4375 9.625 C10.46328125 10.59308594 10.4890625 11.56117188 10.515625 12.55859375 C10.1875 15.1875 10.1875 15.1875 8.93359375 17.0234375 C5.82914903 19.09306732 2.82464626 18.36637605 -0.8125 18.1875 C-0.8125 21.1575 -0.8125 24.1275 -0.8125 27.1875 C-2.4625 26.8575 -4.1125 26.5275 -5.8125 26.1875 C-5.84136751 22.04168113 -5.85925327 17.89588784 -5.875 13.75 C-5.88337891 12.56599609 -5.89175781 11.38199219 -5.90039062 10.16210938 C-5.90361328 9.03740234 -5.90683594 7.91269531 -5.91015625 6.75390625 C-5.91539307 5.71177979 -5.92062988 4.66965332 -5.92602539 3.59594727 C-5.72522354 -0.66407481 -3.78400626 0.02770136 0 0 Z M-0.8125 5.1875 C-0.8125 8.1575 -0.8125 11.1275 -0.8125 14.1875 C1.60395782 14.35437448 1.60395782 14.35437448 4.1875 14.1875 C6.52028733 12.29642859 6.52028733 12.29642859 6.375 9.125 C6.51937793 6.29916864 6.51937793 6.29916864 5.1875 5.1875 C3.18791636 5.14669217 1.18704746 5.14495644 -0.8125 5.1875 Z " fill="#00477F" transform="translate(223.8125,232.8125)"/>
<path d="M0 0 C1.32 0 2.64 0 4 0 C5.17322847 3.93557529 6.33745371 7.87375727 7.5 11.8125 C7.83386719 12.93205078 8.16773438 14.05160156 8.51171875 15.20507812 C8.82753906 16.27822266 9.14335937 17.35136719 9.46875 18.45703125 C9.90864258 19.9416687 9.90864258 19.9416687 10.35742188 21.45629883 C11 24 11 24 11 27 C9.35 27 7.7 27 6 27 C5.67 25.68 5.34 24.36 5 23 C2.69 22.67 0.38 22.34 -2 22 C-2.33 23.65 -2.66 25.3 -3 27 C-4.32 27 -5.64 27 -7 27 C-6.3113884 21.2250527 -5.00217432 15.73884002 -3.5 10.125 C-3.27441406 9.25875 -3.04882812 8.3925 -2.81640625 7.5 C-1.12871469 1.12871469 -1.12871469 1.12871469 0 0 Z M1 10 C0.67 12.64 0.34 15.28 0 18 C1.32 18 2.64 18 4 18 C3.74438677 15.6568787 3.40729228 13.32156597 3 11 C2.34 10.67 1.68 10.34 1 10 Z " fill="#00467F" transform="translate(440,233)"/>
<path d="M0 0 C1.32 0 2.64 0 4 0 C5.17322847 3.93557529 6.33745371 7.87375727 7.5 11.8125 C7.83386719 12.93205078 8.16773438 14.05160156 8.51171875 15.20507812 C8.82753906 16.27822266 9.14335937 17.35136719 9.46875 18.45703125 C9.90864258 19.9416687 9.90864258 19.9416687 10.35742188 21.45629883 C11 24 11 24 11 27 C9.35 27 7.7 27 6 27 C5.67 25.68 5.34 24.36 5 23 C2.69 22.67 0.38 22.34 -2 22 C-2.33 23.65 -2.66 25.3 -3 27 C-4.32 27 -5.64 27 -7 27 C-6.39215968 20.96994771 -5.16834954 15.38265654 -3.5 9.5625 C-3.27441406 8.74845703 -3.04882812 7.93441406 -2.81640625 7.09570312 C-1.13649644 1.13649644 -1.13649644 1.13649644 0 0 Z M1 10 C0.34 12.64 -0.32 15.28 -1 18 C0.65 18 2.3 18 4 18 C3.34 15.36 2.68 12.72 2 10 C1.67 10 1.34 10 1 10 Z " fill="#00467F" transform="translate(164,233)"/>
<path d="M0 0 C2.5 1.6875 2.5 1.6875 4 4 C4.25 6.75 4.25 6.75 4 9 C2.68 9 1.36 9 0 9 C-0.33 7.68 -0.66 6.36 -1 5 C-2.98 5 -4.96 5 -7 5 C-7.02691685 7.45840605 -7.04679802 9.91651882 -7.0625 12.375 C-7.07087891 13.07367188 -7.07925781 13.77234375 -7.08789062 14.4921875 C-7.1835442 18.37295376 -7.1835442 18.37295376 -6 22 C-4.68 22 -3.36 22 -2 22 C-1.34 20.68 -0.68 19.36 0 18 C1.32 18 2.64 18 4 18 C3.6875 21.375 3.6875 21.375 3 25 C-0.67603269 27.45068846 -3.72761034 27.70632248 -8 27 C-11.24534175 24.67001105 -12.2781002 22.83424141 -13 19 C-13.11598239 17.1901352 -13.17492348 15.37603366 -13.1875 13.5625 C-13.20167969 12.63566406 -13.21585937 11.70882812 -13.23046875 10.75390625 C-12.92501707 7.10401748 -11.79671612 4.28359819 -9.875 1.1875 C-6.77082908 -0.77847492 -3.50055605 -0.63390351 0 0 Z " fill="#004680" transform="translate(326,233)"/>
<path d="M0 0 C4.29 0 8.58 0 13 0 C13.33 1.32 13.66 2.64 14 4 C13 5 13 5 10.93359375 5.09765625 C10.10988281 5.08605469 9.28617187 5.07445312 8.4375 5.0625 C7.61121094 5.05347656 6.78492188 5.04445312 5.93359375 5.03515625 C5.29550781 5.02355469 4.65742188 5.01195312 4 5 C4 6.98 4 8.96 4 11 C6.64 11 9.28 11 12 11 C11.67 12.65 11.34 14.3 11 16 C8.69 16 6.38 16 4 16 C4 18.31 4 20.62 4 23 C7.3 23 10.6 23 14 23 C14 24.32 14 25.64 14 27 C9.38 27 4.76 27 0 27 C0 18.09 0 9.18 0 0 Z " fill="#004780" transform="translate(467,233)"/>
<path d="M0 0 C2.475 0.495 2.475 0.495 5 1 C5.50588147 2.91512272 6.00448391 4.83216922 6.5 6.75 C6.7784375 7.81734375 7.056875 8.8846875 7.34375 9.984375 C8 13 8 13 8 17 C8.66 17 9.32 17 10 17 C10.03738281 16.443125 10.07476562 15.88625 10.11328125 15.3125 C10.59560636 9.71374576 11.83241879 5.18334636 14 0 C15.32 0 16.64 0 18 0 C17.33852143 5.61505108 16.04946005 10.88053576 14.5 16.3125 C14.27441406 17.12267578 14.04882812 17.93285156 13.81640625 18.76757812 C12.14275298 24.71449405 12.14275298 24.71449405 11 27 C9.35 26.67 7.7 26.34 6 26 C4.9916593 22.41896026 3.99478914 18.83482575 3 15.25 C2.71382813 14.23421875 2.42765625 13.2184375 2.1328125 12.171875 C1.86210937 11.1921875 1.59140625 10.2125 1.3125 9.203125 C1.06113281 8.30239258 0.80976563 7.40166016 0.55078125 6.47363281 C0 4 0 4 0 0 Z " fill="#00457D" transform="translate(417,233)"/>
<path d="M0 0 C1.48831242 0.00667405 2.97660807 0.01863442 4.46484375 0.03515625 C5.22345703 0.03966797 5.98207031 0.04417969 6.76367188 0.04882812 C8.64326246 0.06064945 10.52281274 0.07858547 12.40234375 0.09765625 C12.40234375 1.74765625 12.40234375 3.39765625 12.40234375 5.09765625 C10.42234375 5.09765625 8.44234375 5.09765625 6.40234375 5.09765625 C6.40234375 12.35765625 6.40234375 19.61765625 6.40234375 27.09765625 C4.75234375 27.09765625 3.10234375 27.09765625 1.40234375 27.09765625 C1.40234375 19.83765625 1.40234375 12.57765625 1.40234375 5.09765625 C-0.24765625 5.09765625 -1.89765625 5.09765625 -3.59765625 5.09765625 C-4.16015625 3.16015625 -4.16015625 3.16015625 -4.59765625 1.09765625 C-3.59765625 0.09765625 -3.59765625 0.09765625 0 0 Z " fill="#004881" transform="translate(549.59765625,232.90234375)"/>
<path d="M0 0 C5.28 0 10.56 0 16 0 C16.33 1.32 16.66 2.64 17 4 C16.67 4.33 16.34 4.66 16 5 C14.35 5 12.7 5 11 5 C11 11.93 11 18.86 11 26 C9.35 26.33 7.7 26.66 6 27 C6 19.74 6 12.48 6 5 C4.02 5 2.04 5 0 5 C0 3.35 0 1.7 0 0 Z " fill="#004882" transform="translate(193,233)"/>
<path d="M0 0 C5.28 0 10.56 0 16 0 C16 1.65 16 3.3 16 5 C14.02 5 12.04 5 10 5 C10 12.26 10 19.52 10 27 C8.35 26.67 6.7 26.34 5 26 C5 19.07 5 12.14 5 5 C3.35 5 1.7 5 0 5 C0 3.35 0 1.7 0 0 Z " fill="#004275" transform="translate(331,233)"/>
<path d="M0 0 C1.48831242 0.00667405 2.97660807 0.01863442 4.46484375 0.03515625 C5.22345703 0.03966797 5.98207031 0.04417969 6.76367188 0.04882812 C8.64326246 0.06064945 10.52281274 0.07858547 12.40234375 0.09765625 C12.40234375 1.74765625 12.40234375 3.39765625 12.40234375 5.09765625 C10.42234375 5.09765625 8.44234375 5.09765625 6.40234375 5.09765625 C6.40234375 12.35765625 6.40234375 19.61765625 6.40234375 27.09765625 C5.08234375 27.09765625 3.76234375 27.09765625 2.40234375 27.09765625 C2.40234375 19.83765625 2.40234375 12.57765625 2.40234375 5.09765625 C0.42234375 5.09765625 -1.55765625 5.09765625 -3.59765625 5.09765625 C-4.16015625 3.16015625 -4.16015625 3.16015625 -4.59765625 1.09765625 C-3.59765625 0.09765625 -3.59765625 0.09765625 0 0 Z " fill="#004A83" transform="translate(452.59765625,232.90234375)"/>
<path d="M0 0 C1.32 0 2.64 0 4 0 C4 7.59 4 15.18 4 23 C6.97 23 9.94 23 13 23 C13 24.32 13 25.64 13 27 C10.85423363 27.02685938 8.70837355 27.04633088 6.5625 27.0625 C5.36753906 27.07410156 4.17257812 27.08570313 2.94140625 27.09765625 C0 27 0 27 -1 26 C-1.09959621 24.15840977 -1.13080411 22.31303033 -1.1328125 20.46875 C-1.13410156 19.34855469 -1.13539063 18.22835937 -1.13671875 17.07421875 C-1.13285156 15.89472656 -1.12898438 14.71523437 -1.125 13.5 C-1.12886719 12.32050781 -1.13273437 11.14101562 -1.13671875 9.92578125 C-1.13542969 8.80558594 -1.13414062 7.68539062 -1.1328125 6.53125 C-1.13168457 5.49548828 -1.13055664 4.45972656 -1.12939453 3.39257812 C-1 1 -1 1 0 0 Z " fill="#003F7D" transform="translate(491,233)"/>
<path d="M0 0 C2.475 0.495 2.475 0.495 5 1 C5 9.58 5 18.16 5 27 C3.35 27 1.7 27 0 27 C0 18.09 0 9.18 0 0 Z " fill="#004980" transform="translate(539,233)"/>
<path d="M0 0 C1.32 0 2.64 0 4 0 C5.26723437 2.53446873 5.12941328 4.32226954 5.1328125 7.15625 C5.13474609 8.68958984 5.13474609 8.68958984 5.13671875 10.25390625 C5.13285156 11.32511719 5.12898438 12.39632812 5.125 13.5 C5.12886719 14.57121094 5.13273437 15.64242187 5.13671875 16.74609375 C5.13542969 17.76832031 5.13414062 18.79054687 5.1328125 19.84375 C5.13168457 20.78412109 5.13055664 21.72449219 5.12939453 22.69335938 C5 25 5 25 4 27 C2.68 27 1.36 27 0 27 C0 18.09 0 9.18 0 0 Z " fill="#003D6C" transform="translate(506,233)"/>
<path d="M0 0 C1.32 0 2.64 0 4 0 C4 8.91 4 17.82 4 27 C2.68 27 1.36 27 0 27 C0 18.09 0 9.18 0 0 Z " fill="#004A84" transform="translate(411,233)"/>
</svg>
