<svg width="320" height="85" viewBox="0 0 320 85" fill="none" xmlns="http://www.w3.org/2000/svg">
<path fill-rule="evenodd" clip-rule="evenodd" d="M16.3706 14.079C17.3625 13.2677 18.3756 12.5145 19.4063 11.813C4.63755 26.1972 1.39931 49.5178 12.4966 65.597C23.5944 81.6763 45.0719 84.782 61.8739 73.3441C60.9681 74.2267 60.0214 75.0761 59.0295 75.8875C41.8656 89.9258 18.3947 87.4711 6.61653 70.4059C-5.16168 53.3407 -0.793888 28.1168 16.37 14.0785L16.3706 14.079Z" fill="#FFFCD6"/>
<path d="M40.0428 71.5606C54.5523 71.5606 66.3145 59.0272 66.3145 43.5665C66.3145 28.1059 54.5523 15.5725 40.0428 15.5725C25.5334 15.5725 13.7712 28.1059 13.7712 43.5665C13.7712 59.0272 25.5334 71.5606 40.0428 71.5606Z" fill="#ED282E"/>
<path fill-rule="evenodd" clip-rule="evenodd" d="M28.2391 70.5763C28.2853 62.3311 28.3316 54.0859 28.3778 45.8413C40.1066 53.4214 51.7205 45.36 51.2804 34.6552C50.8403 23.9504 41.3329 21.8693 37.1921 23.8911C37.0533 27.7772 36.9146 31.6637 36.7759 35.5498C33.6992 34.7357 31.2105 33.9216 28.1333 33.1075C28.272 28.3547 28.4108 23.6018 28.5495 18.849C46.4698 6.30009 63.0996 22.3989 60.3025 37.3329C57.5055 52.2669 47.7195 56.9072 36.8444 58.3657L36.7833 71.7966C34.0538 71.8755 30.9686 70.4975 28.2391 70.5763Z" fill="#FFCC1B"/>
<path fill-rule="evenodd" clip-rule="evenodd" d="M40.0429 12.1431C56.3271 12.1431 69.5325 26.2146 69.5325 43.5663C69.5325 60.9181 56.3265 74.9896 40.0429 74.9896C23.7587 74.9896 10.5532 60.9181 10.5532 43.5663C10.5532 26.2146 23.7587 12.1431 40.0429 12.1431ZM40.0429 15.5723C54.5501 15.5723 66.3145 28.1081 66.3145 43.5663C66.3145 59.0246 54.5501 71.5604 40.0429 71.5604C25.5362 71.5604 13.7713 59.0246 13.7713 43.5663C13.7713 28.1081 25.5362 15.5723 40.0429 15.5723Z" fill="#FFFCD6"/>
<path d="M276.167 43.3565C279.48 43.3565 282.794 43.3565 286.107 43.3565C287.841 43.2961 288.874 43.2461 289.21 43.196C289.541 43.146 289.831 42.9954 290.069 42.7349C290.37 42.4043 290.585 41.9132 290.712 41.2612C290.834 40.5994 290.898 39.6069 290.898 38.2735C290.898 36.9706 290.828 35.9879 290.683 35.3359C290.544 34.6942 290.3 34.2232 289.946 33.9323C289.697 33.7316 289.401 33.6213 289.053 33.5816C288.711 33.5413 287.72 33.5114 286.09 33.4913C282.782 33.4913 279.474 33.4913 276.166 33.4913C276.166 36.7797 276.166 40.0681 276.166 43.3565H276.167ZM199.012 14.972H199.028H199.14H199.252H297.892V19.4377H199.252V57.8772C198.686 64.5296 191.04 65.4524 186.969 57.8772L174.766 38.8238C174.511 38.8238 174.256 38.8238 174.001 38.8238C174.051 48.7891 174.101 62.1069 174.151 72.0716H168.2H166.966H86.8799V67.6059H166.966V28.628C167.571 21.695 176.222 21.0941 179.354 28.628L191.504 47.6808C191.748 47.6808 191.992 47.6808 192.235 47.6808C192.179 37.7156 192.123 24.9367 192.067 14.9714H199.012V14.972ZM94.6853 43.7377C97.6295 43.7377 100.574 43.7377 103.518 43.7377C105.13 43.7175 106.111 43.6773 106.47 43.6175C106.824 43.5571 107.143 43.407 107.427 43.146C107.787 42.8154 108.036 42.314 108.175 41.6424C108.308 40.9605 108.378 39.9082 108.378 38.4845C108.378 37.051 108.291 36.008 108.123 35.3364C107.954 34.6746 107.653 34.1933 107.224 33.9029C106.905 33.6925 105.67 33.5522 103.518 33.4918C100.574 33.4918 97.6295 33.4918 94.6853 33.4918C94.6853 36.9069 94.6853 40.3226 94.6853 43.7377ZM87.6156 63.5681C87.6156 50.2041 87.6156 36.8406 87.6156 23.4766C92.9125 23.4766 98.21 23.4766 103.507 23.4766C106.651 23.4766 108.681 23.587 109.585 23.7974C111.888 24.3287 113.442 25.6023 114.254 27.6274C115.06 29.6629 115.466 33.2716 115.466 38.4851C115.466 43.4375 115.129 46.9064 114.463 48.9114C114.01 50.2546 113.378 51.2873 112.56 51.9894C111.742 52.7012 110.629 53.1825 109.214 53.4631C108.204 53.6534 106.326 53.7541 103.571 53.7541C100.609 53.7541 97.6471 53.7541 94.6853 53.7541C94.6853 57.0256 94.6853 60.2971 94.6853 63.5687C92.3289 63.5687 89.9719 63.5687 87.6156 63.5687V63.5681ZM119.229 23.4766C121.704 23.4766 124.179 23.4766 126.653 23.4766C126.653 36.8406 126.653 50.2041 126.653 63.5681C124.178 63.5681 121.704 63.5681 119.229 63.5681C119.229 50.2041 119.229 36.8406 119.229 23.4766ZM146.818 33.3113C143.072 33.3113 140.815 33.4815 140.056 33.8127C139.185 34.2037 138.611 35.0759 138.339 36.4393C138.066 37.8026 137.933 40.5097 137.933 44.5697C137.933 47.0157 138.008 48.7902 138.153 49.8827C138.438 51.9181 139.29 53.0911 140.716 53.3815C141.772 53.6121 143.813 53.7323 146.853 53.7323C149.694 53.7323 151.586 53.642 152.525 53.4718C153.465 53.2912 154.16 52.9003 154.613 52.2885C155.024 51.7469 155.303 50.9349 155.448 49.8723C155.593 48.7994 155.669 47.0555 155.669 44.6192C155.669 41.7419 155.611 39.6265 155.5 38.273C155.384 36.9298 155.181 35.9069 154.886 35.2255C154.514 34.3636 153.894 33.8219 153.035 33.6213C152.177 33.4108 150.1 33.3107 146.818 33.3107V33.3113ZM146.801 22.8849C151.806 22.8849 155.251 23.0954 157.13 23.5266C159.839 24.158 161.497 26.3837 162.111 30.2034C162.529 32.8202 162.738 37.2615 162.738 43.5071C162.738 49.7728 162.529 54.2244 162.111 56.8407C161.497 60.6604 159.838 62.8862 157.13 63.5175C155.251 63.9488 151.829 64.1592 146.87 64.1592C141.818 64.1592 138.35 63.9488 136.471 63.5175C133.763 62.8856 132.104 60.6604 131.49 56.8407C131.072 54.2244 130.863 49.6929 130.863 43.2765C130.863 37.1609 131.072 32.8001 131.49 30.2034C132.105 26.3837 133.763 24.158 136.471 23.5266C138.339 23.0954 141.784 22.8849 146.801 22.8849ZM207.968 23.4766C215.187 23.4766 222.406 23.4766 229.625 23.4766C229.625 26.6176 229.625 29.7591 229.625 32.9002C223.383 32.9002 217.141 32.9002 210.898 32.9002C210.898 34.8318 210.898 36.7634 210.898 38.695C216.823 38.695 222.749 38.695 228.674 38.695C228.674 41.6326 228.674 44.5703 228.674 47.5073C222.749 47.5073 216.824 47.5073 210.898 47.5073C210.898 49.6494 210.898 51.7914 210.898 53.9335C217.185 53.9335 223.472 53.9335 229.759 53.9335C229.759 57.1452 229.759 60.3564 229.759 63.5681C222.142 63.5681 214.526 63.5681 206.91 63.5681C205.238 63.5105 204.246 62.4413 203.933 60.4706C203.933 49.2622 203.933 38.0544 203.933 26.8465C204.075 24.4418 205.583 23.3868 207.968 23.4766ZM254.123 47.9989L249.651 33.6903C249.181 33.6903 248.711 33.6903 248.242 33.6903L243.77 47.9989H254.123ZM258.588 63.5681C257.925 61.3059 257.262 59.0431 256.599 56.7809C251.485 56.7809 246.372 56.7809 241.259 56.7809C240.595 59.0431 239.932 61.3059 239.269 63.5681C236.578 63.5681 233.887 63.5681 231.196 63.5681C235.296 50.2041 239.396 41.6571 243.497 28.293C246.239 20.7494 252.321 22.0556 254.476 28.293L266.608 63.5681C263.935 63.5681 261.261 63.5681 258.588 63.5681H258.588ZM269.097 63.5681C269.097 50.2041 269.097 36.8406 269.097 23.4766C274.79 23.4766 280.484 23.4766 286.177 23.4766C290.185 23.4967 292.586 23.5668 293.38 23.6973C294.175 23.8273 294.94 24.2787 295.677 25.0607C296.559 25.983 297.162 27.2462 297.492 28.8706C297.823 30.4846 297.986 33.0209 297.986 36.4898C297.986 39.4074 297.881 41.5423 297.673 42.916C297.464 44.2896 297.069 45.3822 296.489 46.2044C295.868 47.0864 294.929 47.6982 293.67 48.0294C295.155 48.2197 296.217 48.962 296.866 50.2351C297.237 50.9969 297.475 51.9192 297.58 53.002C297.678 54.0945 297.73 56.3703 297.73 59.8392C297.73 61.0824 297.73 62.3255 297.73 63.5687C295.409 63.5687 293.087 63.5687 290.765 63.5687C290.765 62.8536 290.765 62.1384 290.765 61.4233C290.765 59.1877 290.719 57.6037 290.62 56.6509C290.522 55.6987 290.347 54.9667 290.086 54.4556C289.825 53.9944 289.466 53.6937 289.008 53.5632C288.549 53.4332 287.587 53.3728 286.125 53.3728C282.805 53.3728 279.486 53.3728 276.167 53.3728C276.167 56.7716 276.167 60.1699 276.167 63.5687C273.81 63.5687 271.454 63.5687 269.097 63.5687L269.097 63.5681Z" fill="white"/>
<path d="M306.143 15.3136V4.09814H310.805C311.976 4.09814 312.826 4.19983 313.357 4.40103C313.888 4.60224 314.314 4.96007 314.633 5.47451C314.952 5.99112 315.111 6.57898 315.111 7.24188C315.111 8.0826 314.868 8.78031 314.386 9.32847C313.903 9.87445 313.178 10.2214 312.216 10.3622C312.696 10.6494 313.092 10.9632 313.403 11.3047C313.715 11.6467 314.133 12.2525 314.661 13.1248L316.002 15.3131H313.354L311.754 12.8714C311.185 11.9991 310.797 11.4509 310.588 11.2236C310.378 10.9963 310.157 10.8424 309.922 10.756C309.687 10.6722 309.317 10.6309 308.806 10.6309H308.359V15.3131H306.144L306.143 15.3136ZM308.359 8.84013H309.995C311.056 8.84013 311.72 8.79608 311.986 8.70418C312.249 8.61282 312.456 8.45348 312.606 8.22889C312.754 8.0043 312.83 7.72479 312.83 7.38817C312.83 7.00968 312.731 6.70623 312.534 6.47403C312.338 6.24182 312.06 6.09553 311.7 6.033C311.521 6.00907 310.982 5.99602 310.084 5.99602H308.358V8.84013H308.359Z" fill="white"/>
<path fill-rule="evenodd" clip-rule="evenodd" d="M310.512 0C315.751 0 320 4.34664 320 9.70639C320 15.0661 315.751 19.4128 310.512 19.4128C305.273 19.4128 301.025 15.0661 301.025 9.70639C301.025 4.34664 305.273 0 310.512 0ZM310.512 1.41281C314.989 1.41281 318.619 5.12646 318.619 9.70585C318.619 14.2852 314.989 17.9989 310.512 17.9989C306.036 17.9989 302.406 14.2852 302.406 9.70585C302.406 5.12646 306.036 1.41281 310.512 1.41281Z" fill="white"/>
</svg>
