<svg width="40" height="42" viewBox="0 0 40 42" fill="none" xmlns="http://www.w3.org/2000/svg">
<path fill-rule="evenodd" clip-rule="evenodd" d="M9.41751 1.28533C9.98811 0.825112 10.5709 0.397906 11.1639 0C2.66784 8.15892 0.804981 21.3867 7.18892 30.507C13.5732 39.6274 25.9285 41.389 35.5942 34.9013C35.0731 35.4019 34.5285 35.8837 33.9579 36.3439C24.084 44.3066 10.5819 42.9143 3.80629 33.2347C-2.96936 23.5551 -0.4567 9.24776 9.4172 1.28502L9.41751 1.28533Z" fill="#363894"/>
<path d="M23.0351 33.8895C31.382 33.8895 38.1484 26.7804 38.1484 18.0109C38.1484 9.24141 31.382 2.13232 23.0351 2.13232C14.6883 2.13232 7.92188 9.24141 7.92188 18.0109C7.92188 26.7804 14.6883 33.8895 23.0351 33.8895Z" fill="#ED282E"/>
<path fill-rule="evenodd" clip-rule="evenodd" d="M16.2449 33.3312C16.2715 28.6544 16.2981 23.9776 16.3247 19.3011C23.072 23.6007 29.7531 19.0282 29.4999 12.9562C29.2467 6.88433 23.7774 5.70388 21.3953 6.85071C21.3155 9.05492 21.2357 11.2594 21.1559 13.4637C19.386 13.0019 17.9543 12.5401 16.1841 12.0784C16.2639 9.3825 16.3437 6.68662 16.4235 3.99073C26.7326 -3.12716 36.2991 6.00431 34.6901 14.4751C33.081 22.9458 27.4515 25.5779 21.1953 26.4052L21.1602 34.0234C19.59 34.0681 17.8152 33.2865 16.2449 33.3312Z" fill="#FFCC1B"/>
<path fill-rule="evenodd" clip-rule="evenodd" d="M23.0356 0.187134C32.4034 0.187134 40.0001 8.16869 40.0001 18.0108C40.0001 27.853 32.4031 35.8346 23.0356 35.8346C13.6677 35.8346 6.07104 27.853 6.07104 18.0108C6.07104 8.16869 13.6677 0.187134 23.0356 0.187134ZM23.0356 2.13225C31.3811 2.13225 38.1488 9.24272 38.1488 18.0108C38.1488 26.779 31.3811 33.8894 23.0356 33.8894C14.6903 33.8894 7.92229 26.779 7.92229 18.0108C7.92229 9.24272 14.6903 2.13225 23.0356 2.13225Z" fill="#FFFCD6"/>
</svg>
